# xmcd
#
# Track frame offsets: 
#        150
#        12847
#        23369
#        36393
#        47136
#        57343
#        67875
#        80247
#        90344
#        103257
#        112556
#        121815
#        132634
#        144467
#        156744
#        165429
#        176440
#        186657
#        195990
#        207086
#
# Disc length: 2961 seconds
#
# Revision: 0
# Processed by: cddbd v1.5.2PL0 Copyright (c) Steve Scherf et al.
# Submitted via: ExactAudioCopy v1.0b3
#
DISCID=0e0b8f14
DTITLE=George Jones - The Absolutely Essential 3 CD Collection CD1
DYEAR=2013
DGENRE=Country
TTITLE0=White Lightning
TTITLE1=Treasure Of Love
TTITLE2=Yearning (To Kiss You)
TTITLE3=I'm Ragged But I'm Right
TTITLE4=Why Baby Why
TTITLE5=No Money In This Deal
TTITLE6=I Take The Chance
TTITLE7=Don't Stop The Music
TTITLE8=Color Of the Blues
TTITLE9=Big Harlan Taylor
TTITLE10=Honky Tonkin'
TTITLE11=Tender Years
TTITLE12=Out Of Control
TTITLE13=Take The Devil Out Of Me
TTITLE14=If I Don't Love You (Grits Ain't Groceries)
TTITLE15=Who Shot Sam
TTITLE16=Uh, Oh No
TTITLE17=Stil Hurtin'
TTITLE18=Life To Go
TTITLE19=Cold, Cold Heart
EXTD=
EXTT0=
EXTT1=
EXTT2=
EXTT3=
EXTT4=
EXTT5=
EXTT6=
EXTT7=
EXTT8=
EXTT9=
EXTT10=
EXTT11=
EXTT12=
EXTT13=
EXTT14=
EXTT15=
EXTT16=
EXTT17=
EXTT18=
EXTT19=
PLAYORDER=
